<svg xmlns="http://www.w3.org/2000/svg" viewBox="0 0 100 100" width="32" height="32">
  <!-- 背景 -->
  <rect width="100" height="100" fill="#FFD700" rx="15"/>
  
  <!-- スロットマシンベース -->
  <rect x="15" y="20" width="70" height="65" fill="#333" rx="8"/>
  
  <!-- 画面 -->
  <rect x="20" y="25" width="60" height="35" fill="#000" rx="4"/>
  
  <!-- リール1 -->
  <rect x="22" y="27" width="16" height="31" fill="#1a1a1a" rx="2"/>
  <text x="30" y="45" font-family="Arial, sans-serif" font-size="16" font-weight="bold" fill="#FFD700" text-anchor="middle">7</text>
  
  <!-- リール2 -->
  <rect x="42" y="27" width="16" height="31" fill="#1a1a1a" rx="2"/>
  <text x="50" y="45" font-family="Arial, sans-serif" font-size="16" font-weight="bold" fill="#FF6B6B" text-anchor="middle">7</text>
  
  <!-- リール3 -->
  <rect x="62" y="27" width="16" height="31" fill="#1a1a1a" rx="2"/>
  <text x="70" y="45" font-family="Arial, sans-serif" font-size="16" font-weight="bold" fill="#4ECDC4" text-anchor="middle">7</text>
  
  <!-- ボタン -->
  <circle cx="30" cy="72" r="4" fill="#FFD700"/>
  <circle cx="50" cy="72" r="4" fill="#FFD700"/>
  <circle cx="70" cy="72" r="4" fill="#FFD700"/>
  
  <!-- 輝き効果 -->
  <path d="M25 15 L30 25 L25 35 L20 25 Z" fill="#FFF" opacity="0.3"/>
  <path d="M75 15 L80 25 L75 35 L70 25 Z" fill="#FFF" opacity="0.3"/>
</svg>